<?xml version="1.0" encoding="UTF-8"?>
<svg version="1.1" xmlns="http://www.w3.org/2000/svg" width="260" height="260">
<path d="M0 0 C0.67443146 0.00432037 1.34886292 0.00864075 2.04373169 0.01309204 C31.94193519 0.23701388 61.64804504 9.68749664 84.41796875 29.58984375 C86.5859537 31.55684118 86.5859537 31.55684118 89.625 32.375 C91.0625 33.765625 91.0625 33.765625 92.625 35.625 C93.22957031 36.33914062 93.83414063 37.05328125 94.45703125 37.7890625 C95.17246094 38.64242187 95.88789063 39.49578125 96.625 40.375 C97.54444428 41.4462822 98.46509048 42.51653362 99.38671875 43.5859375 C100.36230092 44.72368252 101.3375612 45.86170363 102.3125 47 C102.77591797 47.53786133 103.23933594 48.07572266 103.71679688 48.62988281 C111.625 57.93197786 111.625 57.93197786 111.625 61.375 C112.285 61.375 112.945 61.375 113.625 61.375 C118.9981555 71.78807969 123.94381405 82.1290376 127.125 93.4375 C127.47038818 94.66472778 127.47038818 94.66472778 127.82275391 95.91674805 C130.74564061 106.9156834 131.93770488 117.47939419 131.83081055 128.86572266 C131.81251958 130.87285136 131.81030215 132.87951506 131.81054688 134.88671875 C131.77555745 142.76322636 131.42426356 150.53872201 130.625 158.375 C129.965 158.375 129.305 158.375 128.625 158.375 C128.521875 159.48875 128.41875 160.6025 128.3125 161.75 C127.23126236 170.26195013 124.13627023 178.06412958 120.4375 185.75 C119.84594116 186.98544556 119.84594116 186.98544556 119.24243164 188.24584961 C113.05909692 200.88868242 104.85475972 212.65672826 94.625 222.375 C94.11195313 222.931875 93.59890625 223.48875 93.0703125 224.0625 C77.99988843 240.10312304 56.80811819 251.78904075 35.625 257.375 C35.00180878 257.54578064 34.37861755 257.71656128 33.73654175 257.89251709 C27.3972447 259.48440416 21.3491971 259.65016249 14.8359375 259.60546875 C13.73327545 259.60501053 12.6306134 259.60455231 11.49453735 259.6040802 C9.17668575 259.60107448 6.85883586 259.59323897 4.54101562 259.58081055 C1.00383307 259.56251982 -2.53308749 259.56030144 -6.0703125 259.56054688 C-8.33073142 259.55563192 -10.59114857 259.5498037 -12.8515625 259.54296875 C-13.90276276 259.54185593 -14.95396301 259.5407431 -16.03701782 259.53959656 C-24.53464402 259.48491711 -31.43839072 258.58982907 -39.375 255.375 C-40.4578125 254.9625 -41.540625 254.55 -42.65625 254.125 C-52.20357133 250.43443881 -61.28846488 246.07946102 -70.375 241.375 C-70.375 240.715 -70.375 240.055 -70.375 239.375 C-71.25671875 238.95541016 -71.25671875 238.95541016 -72.15625 238.52734375 C-78.99623494 234.97488678 -84.58249612 229.47766843 -90.16210938 224.24633789 C-92.22291265 222.31858846 -94.23178332 220.47520016 -96.546875 218.85546875 C-98.86354506 216.97936201 -99.90215584 214.96453457 -101.375 212.375 C-102.54047501 210.75015532 -103.70698668 209.12595114 -104.89111328 207.51464844 C-117.375 190.52151601 -117.375 190.52151601 -117.375 185.375 C-118.035 185.045 -118.695 184.715 -119.375 184.375 C-120.12109375 182.625 -120.12109375 182.625 -120.8125 180.375 C-121.77725978 177.2867991 -122.78365459 174.23298221 -123.875 171.1875 C-127.9212491 158.65996215 -128.88127103 146.95244147 -128.82104492 133.88110352 C-128.81254361 131.07688639 -128.84138664 128.27472019 -128.87304688 125.47070312 C-128.97326338 99.82035959 -120.82728262 74.97804349 -105.375 54.375 C-105.045 53.385 -104.715 52.395 -104.375 51.375 C-103.25286558 50.19347094 -102.12120877 49.01961632 -100.94482422 47.89208984 C-99.13606309 46.14408959 -97.40067222 44.33547396 -95.66015625 42.51953125 C-87.17896053 33.77254307 -78.8114858 25.72458832 -68.375 19.375 C-67.74190918 18.98908691 -67.10881836 18.60317383 -66.45654297 18.20556641 C-58.24175135 13.31374762 -49.80455758 9.56214669 -40.75 6.5 C-39.94038818 6.22583252 -39.13077637 5.95166504 -38.29663086 5.66918945 C-25.64128835 1.62485388 -13.26967598 -0.14382895 0 0 Z M18.63671875 17.8203125 C16.43548483 18.42725467 14.25416393 18.76462795 12 19.125 C-2.83683649 22.10159706 -17.3640383 30.07091486 -28.375 40.375 C-28.375 41.035 -28.375 41.695 -28.375 42.375 C-28.99375 42.6225 -29.6125 42.87 -30.25 43.125 C-32.72568687 44.58128639 -33.32625002 45.75312506 -34.375 48.375 C-35.035 48.375 -35.695 48.375 -36.375 48.375 C-51.42092893 65.94587793 -59.81739036 87.97912662 -59.6875 111.0625 C-59.68186035 112.11759766 -59.6762207 113.17269531 -59.67041016 114.25976562 C-59.29079757 138.81055214 -49.90405009 160.26305745 -33.375 178.375 C-31.43798856 180.20064323 -29.51358454 181.78477047 -27.375 183.375 C-27.56835938 182.79492188 -27.76171875 182.21484375 -27.9609375 181.6171875 C-28.50351689 179.98944933 -29.04237363 178.36046704 -29.578125 176.73046875 C-30.16711556 174.98948194 -30.81741415 173.26896462 -31.5 171.5625 C-34.08445576 162.14769686 -33.26384495 152.85653962 -31.9375 143.3125 C-30.49989163 132.65913139 -29.30726962 122.49782517 -31.8125 111.9375 C-32.07933594 110.78378906 -32.34617187 109.63007812 -32.62109375 108.44140625 C-33.04401369 106.72123967 -33.47836069 105.00346024 -33.953125 103.296875 C-35.13562974 97.90990898 -35.41068459 91.59880317 -32.9375 86.5625 C-27.97042126 79.29487952 -19.60665468 76.2606081 -11.375 74.375 C-10.61058594 74.23964844 -9.84617188 74.10429688 -9.05859375 73.96484375 C-4.67489931 73.17959066 -1.70580955 72.11453329 1.9375 69.5 C12.30722475 62.21268484 26.35587103 59.63215654 38.86621094 61.75537109 C46.12910521 63.43578639 52.83884677 66.02413967 58.9765625 70.3125 C62.2583912 72.42780191 65.99794598 73.0596109 69.78125 73.79296875 C78.19538974 75.47867825 85.86505661 78.75884881 91.625 85.375 C96.05679815 94.25327113 93.47217348 104.65625995 90.56640625 113.65234375 C89.5573025 117.64270006 89.39243922 121.07877609 89.4375 125.1875 C89.44394531 126.49332031 89.45039063 127.79914063 89.45703125 129.14453125 C89.40324113 132.26495488 89.40324113 132.26495488 90.625 134.375 C90.8997865 137.32513841 91.07581261 140.27261454 91.23486328 143.23095703 C91.41328444 146.40745083 91.6433734 149.50594943 92.0859375 152.66015625 C93.96183264 166.6585813 88.47979228 181.18742501 80.1328125 192.375 C79.0087871 193.74669201 77.82493196 195.06919169 76.625 196.375 C77.945 196.045 79.265 195.715 80.625 195.375 C80.625 194.715 80.625 194.055 80.625 193.375 C81.18058594 193.27960938 81.73617187 193.18421875 82.30859375 193.0859375 C98.32178541 188.17126485 110.80994417 169.2966106 118.32421875 155.18359375 C126.83011979 137.27001993 123.67795041 112.08217302 117.48828125 93.671875 C117.20339844 92.91390625 116.91851562 92.1559375 116.625 91.375 C116.28855469 90.47265625 115.95210937 89.5703125 115.60546875 88.640625 C103.11209055 57.05201658 80.92677577 34.2757553 50.625 19.375 C49.92375 18.99214844 49.2225 18.60929687 48.5 18.21484375 C40.20836393 14.23559876 27.3372965 15.40072326 18.63671875 17.8203125 Z " fill="#B37173" transform="translate(128.375,0.625)"/>
<path d="M0 0 C0.85078125 -0.00386719 1.7015625 -0.00773438 2.578125 -0.01171875 C7.8079303 -0.00369758 12.82453277 0.37024436 18 1.125 C17 3.125 17 3.125 15.08569336 3.96289062 C14.26206299 4.23294922 13.43843262 4.50300781 12.58984375 4.78125 C11.22762695 5.23177734 11.22762695 5.23177734 9.83789062 5.69140625 C8.88076172 5.99949219 7.92363281 6.30757812 6.9375 6.625 C6.00744141 6.93308594 5.07738281 7.24117187 4.11914062 7.55859375 C0.01503041 8.90259611 -4.04294481 10.16899851 -8.26171875 11.09765625 C-19.98516644 14.31946058 -29.49387863 23.83535178 -38 32.125 C-38.65484375 32.70636719 -39.3096875 33.28773437 -39.984375 33.88671875 C-45.9302406 39.3007294 -49.94596418 46.25854902 -54 53.125 C-54.55945313 54.07246094 -55.11890625 55.01992188 -55.6953125 55.99609375 C-68.40045179 79.44406024 -70.81906004 108.72689824 -63.38183594 134.24609375 C-54.16622028 163.05998375 -35.25013086 183.82886848 -9 198.125 C13.15703533 207.51250284 37.65633597 209.24299573 61 203.125 C62.27230469 202.83109375 63.54460937 202.5371875 64.85546875 202.234375 C83.33393349 197.57297564 97.87585547 185.42389415 111 172.125 C112.19302734 170.93390625 112.19302734 170.93390625 113.41015625 169.71875 C113.93480469 169.1928125 114.45945313 168.666875 115 168.125 C111.73363161 178.76858089 105.69057762 188.30241442 99 197.125 C98.33355469 198.00800781 97.66710937 198.89101562 96.98046875 199.80078125 C79.88163881 221.58253398 56.30273178 234.53822202 30 242.125 C29.29182129 242.33672852 28.58364258 242.54845703 27.85400391 242.76660156 C18.29386425 245.55102257 9.07885972 246.49313512 -0.875 246.5625 C-1.8966626 246.57265137 -2.9183252 246.58280273 -3.97094727 246.59326172 C-10.34917336 246.52007318 -16.04899212 245.58959109 -22.19458008 243.89624023 C-24.67096294 243.21545584 -27.12754134 242.66657936 -29.64453125 242.1640625 C-34.52256302 241.09517545 -39.06694298 239.37317436 -43.6875 237.5 C-44.55745605 237.14808594 -45.42741211 236.79617187 -46.32373047 236.43359375 C-58.03462215 231.58085928 -68.42876621 225.51478461 -78 217.125 C-78.99 216.26777344 -79.98 215.41054687 -81 214.52734375 C-104.67559377 193.67353962 -120.10098212 163.1386905 -122.16845703 131.55126953 C-123.70981901 96.66747482 -111.56228152 64.42645499 -88.3125 38.5625 C-73.30188225 22.38000491 -47.91411925 4.33525034 -25.171875 2.953125 C-22.77116705 2.93971322 -20.39628097 2.98734131 -18 3.125 C-18 2.465 -18 1.805 -18 1.125 C-11.95890925 0.2440076 -6.1007632 -0.02773074 0 0 Z " fill="#ECBFBB" transform="translate(129,7.875)"/>
<path d="M0 0 C4.6079867 1.43316741 8.02344133 3.26059292 12 6 C12.99 6.33 13.98 6.66 15 7 C15 7.66 15 8.32 15 9 C15.71800781 9.27585937 16.43601562 9.55171875 17.17578125 9.8359375 C34.90978944 17.14539039 50.69516612 30.72428804 58.5078125 48.4140625 C64.32481137 63.13937964 64.36255727 76.83491996 60 92 C56.50028801 92.1173794 53.00109045 92.18763961 49.5 92.25 C48.51773438 92.28351563 47.53546875 92.31703125 46.5234375 92.3515625 C39.88601167 92.44006151 35.66255197 91.36941164 30 88 C28.2984375 87.319375 28.2984375 87.319375 26.5625 86.625 C13.98456133 80.88769464 5.52977063 71.89616727 0.15234375 59.16015625 C-4.14339698 47.37963336 -3.36388247 35.92873332 -1.78662109 23.66796875 C-0.7926308 15.80079157 -0.37653571 7.91715865 0 0 Z " fill="#F0D1C4" transform="translate(106,116)"/>
<path d="M0 0 C0.02505615 0.73114014 0.0501123 1.46228027 0.07592773 2.21557617 C0.19222641 5.53971417 0.31479928 8.86359241 0.4375 12.1875 C0.47681641 13.33798828 0.51613281 14.48847656 0.55664062 15.67382812 C0.59853516 16.78564453 0.64042969 17.89746094 0.68359375 19.04296875 C0.73858032 20.57473755 0.73858032 20.57473755 0.79467773 22.13745117 C0.98883366 24.84432182 1.46640287 27.34411762 2 30 C2.2638193 33.89324505 2.2768393 37.78621891 2.3125 41.6875 C2.34150391 42.72583984 2.37050781 43.76417969 2.40039062 44.83398438 C2.50867441 58.11957198 -3.33567773 68.11048231 -12.25 77.6875 C-16.62644186 81.87538767 -21.78133432 84.97109603 -27 88 C-27.64582031 88.39574219 -28.29164063 88.79148437 -28.95703125 89.19921875 C-31.67971188 90.26642626 -34.09941332 90.05054146 -37 90 C-36.97381592 89.16976318 -36.94763184 88.33952637 -36.9206543 87.48413086 C-36.0594533 60.92016303 -36.0594533 60.92016303 -47.05859375 37.05078125 C-48 35 -48 35 -47.44140625 33.03515625 C-41.97024441 25.31029089 -34.54962916 19.04463226 -26 15 C-25.34 15 -24.68 15 -24 15 C-24 14.34 -24 13.68 -24 13 C-22.91460937 12.39671875 -21.82921875 11.7934375 -20.7109375 11.171875 C-19.26555301 10.36471223 -17.82024454 9.55741332 -16.375 8.75 C-15.66214844 8.35425781 -14.94929688 7.95851563 -14.21484375 7.55078125 C-10.92332806 5.70874036 -7.70828646 3.84478152 -4.6015625 1.703125 C-2 0 -2 0 0 0 Z " fill="#D8928F" transform="translate(211,115)"/>
<path d="M0 0 C0.66 0.33 1.32 0.66 2 1 C1.99333817 1.6365451 1.98667633 2.27309021 1.97981262 2.92892456 C1.91264571 9.64673734 1.86786779 16.36445245 1.83520508 23.08251953 C1.82026106 25.57865279 1.79989847 28.07476047 1.77368164 30.57080078 C1.58951711 48.57559173 1.76959379 65.97580348 8.125 83.0625 C8.42212891 83.88339111 8.71925781 84.70428223 9.02539062 85.55004883 C13.59042633 97.72074336 19.52320774 109.10426642 28 119 C29.01320313 120.30130859 29.01320313 120.30130859 30.046875 121.62890625 C44.14668056 139.60365837 61.98533927 150.75273692 83 159 C82.34 160.65 81.68 162.3 81 164 C84.63 164.99 88.26 165.98 92 167 C92 167.99 92 168.98 92 170 C92.9075 169.79375 93.815 169.5875 94.75 169.375 C98.12036846 168.98611133 99.28161375 169.08706153 102 171 C102.33 171.66 102.66 172.32 103 173 C95.80722648 172.65234928 89.63657028 171.89431344 83 169 C81.3027479 168.34955608 79.60545713 167.69921222 77.90771484 167.05004883 C68.9803478 163.5986058 60.49383557 159.39759687 52 155 C52 154.34 52 153.68 52 153 C51.11828125 152.58041016 51.11828125 152.58041016 50.21875 152.15234375 C43.37876506 148.59988678 37.79250388 143.10266843 32.21289062 137.87133789 C30.15208735 135.94358846 28.14321668 134.10020016 25.828125 132.48046875 C23.51145494 130.60436201 22.47284416 128.58953457 21 126 C19.83452499 124.37515532 18.66801332 122.75095114 17.48388672 121.13964844 C5 104.14651601 5 104.14651601 5 99 C4.34 98.67 3.68 98.34 3 98 C2.25390625 96.25 2.25390625 96.25 1.5625 94 C0.59774022 90.9117991 -0.40865459 87.85798221 -1.5 84.8125 C-5.5462491 72.28496215 -6.50627103 60.57744147 -6.44604492 47.50610352 C-6.43754361 44.70188639 -6.46638664 41.89972019 -6.49804688 39.09570312 C-6.55121451 25.25094364 -4.50026606 13.10375307 0 0 Z " fill="#AE6E70" transform="translate(6,87)"/>
<path d="M0 0 C14.53671799 2.3205403 29.87441778 12.67134267 40.79296875 22.21484375 C42.9609537 24.18184118 42.9609537 24.18184118 46 25 C47.4375 26.390625 47.4375 26.390625 49 28.25 C49.60457031 28.96414062 50.20914063 29.67828125 50.83203125 30.4140625 C51.54746094 31.26742187 52.26289063 32.12078125 53 33 C53.91944428 34.0712822 54.84009048 35.14153362 55.76171875 36.2109375 C56.73730092 37.34868252 57.7125612 38.48670363 58.6875 39.625 C59.15091797 40.16286133 59.61433594 40.70072266 60.09179688 41.25488281 C68 50.55697786 68 50.55697786 68 54 C68.66 54 69.32 54 70 54 C75.3731555 64.41307969 80.31881405 74.7540376 83.5 86.0625 C83.84538818 87.28972778 83.84538818 87.28972778 84.19775391 88.54174805 C87.12064061 99.5406834 88.31270488 110.10439419 88.20581055 121.49072266 C88.18751958 123.49785136 88.18530215 125.50451506 88.18554688 127.51171875 C88.15055745 135.38822636 87.79926356 143.16372201 87 151 C86.34 151 85.68 151 85 151 C84.896875 152.11375 84.79375 153.2275 84.6875 154.375 C84.070803 159.43554302 82.57493852 164.16622643 81 169 C80.34 168.67 79.68 168.34 79 168 C79.26554687 166.96101562 79.53109375 165.92203125 79.8046875 164.8515625 C86.44971839 138.69558985 88.59025668 113.26228812 81 87 C79.18757677 91.0188515 77.66498383 94.61110675 77 99 C76.67 99 76.34 99 76 99 C75.49564306 97.0636296 74.99666126 95.12585854 74.5 93.1875 C74.2215625 92.10855469 73.943125 91.02960938 73.65625 89.91796875 C73 87 73 87 73 84 C72.34 83.67 71.68 83.34 71 83 C70.66666667 80.66666667 70.33333333 78.33333333 70 76 C69.34 75.67 68.68 75.34 68 75 C67.1749442 73.35623499 66.35838715 71.70751596 65.59082031 70.03613281 C53.48234025 43.72559322 32.61883969 25.56773268 7 13 C6.29875 12.62875 5.5975 12.2575 4.875 11.875 C1.59816503 10.35361234 -1.67641685 9.85302931 -5.2578125 9.609375 C-6.03398926 9.55644287 -6.81016602 9.50351074 -7.60986328 9.44897461 C-11.07243133 9.25126516 -14.53367234 9.11423125 -18 9 C-18 8.67 -18 8.34 -18 8 C-16.72382813 7.93941406 -15.44765625 7.87882813 -14.1328125 7.81640625 C-12.46352984 7.73200432 -10.79425963 7.64735614 -9.125 7.5625 C-8.28324219 7.52318359 -7.44148437 7.48386719 -6.57421875 7.44335938 C-5.76855469 7.40146484 -4.96289062 7.35957031 -4.1328125 7.31640625 C-3.38918457 7.27974854 -2.64555664 7.24309082 -1.87939453 7.20532227 C0.08864312 7.10044135 0.08864312 7.10044135 2 6 C2.33 5.01 2.66 4.02 3 3 C2.34 3 1.68 3 1 3 C0.67 2.01 0.34 1.02 0 0 Z " fill="#9C6565" transform="translate(172,8)"/>
<path d="M0 0 C1.52572632 0.01921509 1.52572632 0.01921509 3.08227539 0.03881836 C13.29873298 0.31542688 21.65520528 2.21722329 29.203125 9.515625 C31.30116131 12.44365369 31.68046237 14.66175885 31.3515625 18.21875 C29.97395713 22.54413462 27.11700617 25.68343023 23.625 28.5 C20.88671875 29.72265625 20.88671875 29.72265625 18.625 30.5 C18.52703125 29.61957031 18.4290625 28.73914063 18.328125 27.83203125 C18.17859375 26.67058594 18.0290625 25.50914063 17.875 24.3125 C17.73578125 23.16394531 17.5965625 22.01539062 17.453125 20.83203125 C16.35587986 16.41717225 14.50547488 13.80643518 10.76953125 11.2109375 C5.40535051 9.43264807 -1.49117122 9.42324575 -6.78125 11.3984375 C-8.87655385 12.56028925 -8.87655385 12.56028925 -11.375 14.5 C-11.375 15.82 -11.375 17.14 -11.375 18.5 C-8.8419876 18.07783127 -6.74796307 17.71134574 -4.5 16.4375 C-1.3350773 15.04121057 1.20635833 15.20011915 4.625 15.5 C7.5 16.6875 7.5 16.6875 9.625 18.5 C10.4375 21.1875 10.4375 21.1875 10.625 23.5 C1.99986757 28.54488878 -5.46903819 30.08837122 -15.5 27.78125 C-20.97794195 25.93542173 -24.72563414 24.00088456 -28.375 19.5 C-28.705 19.17 -29.035 18.84 -29.375 18.5 C-29.45078718 14.71064116 -29.2663388 12.59092611 -26.83984375 9.62109375 C-18.75703183 2.18105017 -10.85825174 -0.20666196 0 0 Z " fill="#ECBBB8" transform="translate(157.375,69.5)"/>
<path d="M0 0 C0.33 0 0.66 0 1 0 C2.06397819 6.91441395 3.01249082 14.19536393 1 21 C-2.68022951 25.74439226 -8.47559139 28.03460115 -13.71582031 30.69042969 C-17.46863567 32.84200104 -20.47338325 35.68708284 -23.5625 38.6875 C-24.11574951 39.21802979 -24.66899902 39.74855957 -25.23901367 40.29516602 C-26.50336124 41.51916856 -27.75349547 42.75783114 -29 44 C-34.03163018 39.70214922 -39.02718443 35.36574458 -44 31 C-39.12926085 20.69316806 -28.20181604 16.4926539 -18.375 12 C-11.43475036 8.82582418 -5.43650232 5.43650232 0 0 Z " fill="#EFCFC2" transform="translate(188,99)"/>
<path d="M0 0 C4.4921875 1.90429688 4.4921875 1.90429688 8.984375 3.80859375 C16.40509011 6.74035296 25.66831642 7.47198969 33.43359375 5.328125 C34.98819628 4.61935997 36.50007311 3.81814194 38 3 C38.99 3 39.98 3 41 3 C41 4.32 41 5.64 41 7 C39.96101563 7.49628906 38.92203125 7.99257812 37.8515625 8.50390625 C22.17170534 15.56441718 22.17170534 15.56441718 11 28 C6.5204553 27.28327285 4.3683942 25.49622525 0 23 C0 15.41 0 7.82 0 0 Z " fill="#D79190" transform="translate(128,98)"/>
<path d="M0 0 C10.14663462 1.12740385 10.14663462 1.12740385 13.375 3.375 C14.00148437 3.79523438 14.62796875 4.21546875 15.2734375 4.6484375 C18.6101582 7.26044059 19.84737191 8.47029075 21.0625 12.6875 C21.44315096 17.20566136 19.88200812 19.64314329 17.02734375 23.03515625 C7.77733598 32 7.77733598 32 3 32 C3 32.66 3 33.32 3 34 C2.01 34 1.02 34 0 34 C0 22.78 0 11.56 0 0 Z " fill="#EECCC0" transform="translate(195,82)"/>
<path d="M0 0 C-0.33 10.89 -0.66 21.78 -1 33 C-5.14755228 32.17048954 -6.95244402 31.69496491 -10.3125 29.5625 C-11.00988281 29.13066406 -11.70726563 28.69882813 -12.42578125 28.25390625 C-12.94527344 27.84011719 -13.46476562 27.42632812 -14 27 C-14 26.34 -14 25.68 -14 25 C-14.66 25 -15.32 25 -16 25 C-19.39593662 21.2881623 -21.471324 18.64413291 -21.3125 13.5 C-20.45492439 8.6761372 -17.91015115 6.29277682 -14.12109375 3.375 C-9.1889176 0.17771454 -5.92832525 0 0 0 Z " fill="#D79190" transform="translate(122,82)"/>
<path d="M0 0 C3.25295803 2.16863869 3.62795048 2.95592435 5 6.4375 C6.27480419 9.66169228 7.46970879 11.64021359 10 14 C11.1875 16.1875 11.1875 16.1875 12 18 C12.66 17.34 13.32 16.68 14 16 C15 15 16 14 17 13 C17.96997581 16.24663588 18.92369087 19.49785018 19.875 22.75 C20.14441406 23.65105469 20.41382813 24.55210938 20.69140625 25.48046875 C24.00460604 36.87464363 25.31728779 47.61622484 25.20581055 59.49072266 C25.18751958 61.49785136 25.18530215 63.50451506 25.18554688 65.51171875 C25.15055745 73.38822636 24.79926356 81.16372201 24 89 C23.34 89 22.68 89 22 89 C21.896875 90.11375 21.79375 91.2275 21.6875 92.375 C21.070803 97.43554302 19.57493852 102.16622643 18 107 C17.34 106.67 16.68 106.34 16 106 C16.26554687 104.96101563 16.53109375 103.92203125 16.8046875 102.8515625 C23.44971839 76.69558985 25.59025668 51.26228812 18 25 C16.18757677 29.0188515 14.66498383 32.61110675 14 37 C13.67 37 13.34 37 13 37 C12.49564306 35.0636296 11.99666126 33.12585854 11.5 31.1875 C11.2215625 30.10855469 10.943125 29.02960938 10.65625 27.91796875 C10 25 10 25 10 22 C9.34 21.67 8.68 21.34 8 21 C7.66666667 18.66666667 7.33333333 16.33333333 7 14 C6.34 13.67 5.68 13.34 5 13 C4.05790983 11.22144796 3.19286047 9.40149035 2.375 7.5625 C1.70597656 6.07943359 1.70597656 6.07943359 1.0234375 4.56640625 C0 2 0 2 0 0 Z " fill="#92595C" transform="translate(235,70)"/>
<path d="M0 0 C-0.99 0.66 -1.98 1.32 -3 2 C-3.99 1.505 -3.99 1.505 -5 1 C-5 0.34 -5 -0.32 -5 -1 C-6.051875 -0.95875 -7.10375 -0.9175 -8.1875 -0.875 C-12 -1 -12 -1 -14.06640625 -1.98828125 C-18.57926921 -3.5446481 -23.01097868 -3.32829674 -27.75 -3.3125 C-28.70132813 -3.32861328 -29.65265625 -3.34472656 -30.6328125 -3.36132812 C-36.20882883 -3.36514731 -40.82027241 -2.74624558 -46.03613281 -0.74291992 C-48.00406121 0.00153633 -49.95172685 0.52685921 -52 1 C-52 1.66 -52 2.32 -52 3 C-52.99 3.33 -53.98 3.66 -55 4 C-55.391875 4.680625 -55.78375 5.36125 -56.1875 6.0625 C-56.785625 6.701875 -57.38375 7.34125 -58 8 C-59.92097012 8 -61.8436312 7.98800926 -63.76171875 7.8828125 C-67.13876289 8.05962109 -69.68128474 9.50347961 -72.6796875 10.9765625 C-76.31956342 12.58202966 -80.09960935 13.29922059 -84 14 C-79.24810975 8.48780731 -74.19843076 7.09605245 -67.25 6.25 C-61.31873073 5.37949033 -57.64295776 3.09027026 -52.7578125 -0.25 C-36.74206309 -10.41296846 -16.16067003 -8.53401088 0 0 Z " fill="#8A5858" transform="translate(185,68)"/>
<path d="M0 0 C0.66 0 1.32 0 2 0 C2.48377991 1.85296835 2.96178636 3.70744441 3.4375 5.5625 C3.83775391 7.11130859 3.83775391 7.11130859 4.24609375 8.69140625 C5.56867201 14.49567455 6.12715366 20.09431456 6.1328125 26.04296875 C6.13376923 26.69268143 6.13472595 27.3423941 6.13571167 28.01179504 C6.13638762 29.37903948 6.1345745 30.74628724 6.13037109 32.11352539 C6.12505839 34.1649531 6.13031345 36.21615749 6.13671875 38.26757812 C6.14032074 46.22472511 5.82017876 54.08312641 5 62 C4.34 62 3.68 62 3 62 C2.8453125 63.670625 2.8453125 63.670625 2.6875 65.375 C2.070803 70.43554302 0.57493852 75.16622643 -1 80 C-1.66 79.67 -2.32 79.34 -3 79 C-2.60167969 77.44152344 -2.60167969 77.44152344 -2.1953125 75.8515625 C4.30867061 50.25077791 5.9948469 25.95641156 0 0 Z " fill="#996263" transform="translate(254,97)"/>
<path d="M0 0 C0.99 0.66 1.98 1.32 3 2 C3.40405273 4.91064453 3.40405273 4.91064453 3.43359375 8.6328125 C3.4402858 9.29795868 3.44697784 9.96310486 3.45387268 10.64840698 C3.46717647 12.80770437 3.45445502 14.9657418 3.4375 17.125 C3.43592896 18.21530518 3.43592896 18.21530518 3.43432617 19.32763672 C3.40237751 29.98902356 2.71970447 39.90365931 -1 50 C-1.33 50 -1.66 50 -2 50 C-2.8297844 45.89311637 -3.01662994 42.50381744 -2.44140625 38.359375 C-2.30259033 37.29638184 -2.16377441 36.23338867 -2.02075195 35.13818359 C-1.86952881 34.02008301 -1.71830566 32.90198242 -1.5625 31.75 C-0.21175573 21.08922282 0.37439722 10.73272032 0 0 Z " fill="#845958" transform="translate(97,113)"/>
<path d="M0 0 C4.75877246 7.13815868 7.83325222 12.42416878 6.39453125 21.1640625 C6.26433594 21.76992187 6.13414063 22.37578125 6 23 C5.01 23 4.02 23 3 23 C2.89816406 22.30519531 2.79632813 21.61039063 2.69140625 20.89453125 C1.88282994 17.50947448 0.53324287 14.77712981 -1.0625 11.6875 C-1.88427734 10.08455078 -1.88427734 10.08455078 -2.72265625 8.44921875 C-3.14417969 7.64097656 -3.56570313 6.83273438 -4 6 C-4.66 6 -5.32 6 -6 6 C-5.67 4.68 -5.34 3.36 -5 2 C-3.68 2 -2.36 2 -1 2 C-0.67 1.34 -0.34 0.68 0 0 Z " fill="#B47474" transform="translate(15,175)"/>
<path d="M0 0 C0.33 0 0.66 0 1 0 C1.79905624 4.27268634 2.16674247 8.38319454 2.28125 12.7265625 C2.31863281 14.00660156 2.35601562 15.28664063 2.39453125 16.60546875 C2.43009049 17.94530187 2.46524499 19.28514578 2.5 20.625 C2.74458466 29.78333688 3.11969055 38.87854119 4 48 C2.515 48.495 2.515 48.495 1 49 C-0.11548332 43.63487263 -0.12858261 38.458154 -0.09765625 33.0078125 C-0.0962413 32.06187225 -0.09482635 31.11593201 -0.09336853 30.1413269 C-0.08779484 27.13585171 -0.0752472 24.13045247 -0.0625 21.125 C-0.0574816 19.08073025 -0.05291929 17.03645932 -0.04882812 14.9921875 C-0.03783403 9.99476264 -0.02058757 4.99739417 0 0 Z " fill="#9D6667" transform="translate(0,110)"/>
<path d="M0 0 C0.78375 0.185625 1.5675 0.37125 2.375 0.5625 C4.97089775 1.25962266 4.97089775 1.25962266 7 0 C8.96008277 0.55009708 10.89555787 1.18953364 12.8125 1.875 C16.53512145 3.1975711 20.10453447 4.32315386 24 5 C24 5.99 24 6.98 24 8 C24.9075 7.79375 25.815 7.5875 26.75 7.375 C30.12036846 6.98611133 31.28161375 7.08706153 34 9 C34.495 9.99 34.495 9.99 35 11 C27.8114553 10.65255367 21.62945168 9.90244651 15 7 C13.03626627 6.20661532 11.06771054 5.42590029 9.09887695 4.64526367 C6.06184179 3.44027042 3.03120109 2.21958481 0 1 C0 0.67 0 0.34 0 0 Z " fill="#925D5D" transform="translate(74,249)"/>
<path d="M0 0 C0.66 1.32 1.32 2.64 2 4 C1.54496094 4.39316406 1.08992188 4.78632813 0.62109375 5.19140625 C-1.29991186 7.33460046 -1.98862108 9.22932627 -2.9375 11.9375 C-4.40426632 15.76336196 -5.57822446 18.54059883 -9 21 C-9.92039063 21.15082031 -9.92039063 21.15082031 -10.859375 21.3046875 C-13.9078684 22.29489156 -15.2006575 24.13744471 -17.25 26.5625 C-17.95640625 27.38878906 -18.6628125 28.21507812 -19.390625 29.06640625 C-19.92171875 29.70449219 -20.4528125 30.34257812 -21 31 C-21.66 30.34 -22.32 29.68 -23 29 C-22.24976563 28.30777344 -21.49953125 27.61554688 -20.7265625 26.90234375 C-12.40084333 19.01539586 -5.16375332 10.32750664 0 0 Z " fill="#8C5857" transform="translate(245,157)"/>
<path d="M0 0 C0.33 0 0.66 0 1 0 C0.99476318 0.59538574 0.98952637 1.19077148 0.98413086 1.80419922 C0.96338001 4.49445547 0.95034593 7.18469489 0.9375 9.875 C0.92912109 10.81214844 0.92074219 11.74929687 0.91210938 12.71484375 C0.90888672 13.61074219 0.90566406 14.50664063 0.90234375 15.4296875 C0.89448853 16.67081299 0.89448853 16.67081299 0.88647461 17.93701172 C0.86647862 20.06411757 0.86647862 20.06411757 2 22 C2.21116846 24.26712807 2.36890094 26.53933594 2.5 28.8125 C2.86159942 35.05520691 3.3764969 41.26616845 4.01171875 47.48828125 C4 50 4 50 2 52 C0.25767113 50.25767113 0.66405814 47.80261018 0.5 45.42578125 C0.4175 44.28302734 0.335 43.14027344 0.25 41.96289062 C0.1675 40.75826172 0.085 39.55363281 0 38.3125 C-0.16414138 35.95424996 -0.33072934 33.59616867 -0.5 31.23828125 C-0.5721875 30.18680908 -0.644375 29.13533691 -0.71875 28.05200195 C-1.00019485 24.99788559 -1.4818029 22.02166725 -2 19 C-2.29325239 12.93657562 -2.16688394 6.96407349 -1 1 C-0.67 0.67 -0.34 0.34 0 0 Z " fill="#9D6262" transform="translate(218,113)"/>
<path d="M0 0 C-0.99 0.66 -1.98 1.32 -3 2 C-3.66 1.67 -4.32 1.34 -5 1 C-5 0.34 -5 -0.32 -5 -1 C-6.051875 -0.95875 -7.10375 -0.9175 -8.1875 -0.875 C-12 -1 -12 -1 -14.1953125 -2.00390625 C-18.07342934 -3.38123187 -21.61020475 -3.17662277 -25.6875 -3.0625 C-33.76079137 -2.88039568 -33.76079137 -2.88039568 -36 -4 C-36 -4.66 -36 -5.32 -36 -6 C-22.74071948 -7.73028909 -12.01942719 -6.36645458 0 0 Z " fill="#946061" transform="translate(185,68)"/>
<path d="M0 0 C0.85078125 -0.00386719 1.7015625 -0.00773438 2.578125 -0.01171875 C7.8079303 -0.00369758 12.82453277 0.37024436 18 1.125 C16.35142748 4.42214504 13.00139262 4.69958676 9.64257812 5.83789062 C8.66740234 6.15951172 7.69222656 6.48113281 6.6875 6.8125 C5.72392578 7.14572266 4.76035156 7.47894531 3.76757812 7.82226562 C2.83751953 8.13228516 1.90746094 8.44230469 0.94921875 8.76171875 C0.09674561 9.04748779 -0.75572754 9.33325684 -1.6340332 9.62768555 C-4.16220399 10.15909447 -5.58427499 9.96117225 -8 9.125 C-7.00097656 8.77566406 -6.00195312 8.42632812 -4.97265625 8.06640625 C-3.66921795 7.60692081 -2.3658354 7.14727721 -1.0625 6.6875 C-0.0734668 6.34235352 -0.0734668 6.34235352 0.93554688 5.99023438 C4.22328622 5.00535408 4.22328622 5.00535408 7 3.125 C-1.34332544 1.93309637 -9.59323022 2.03216451 -18 2.125 C-18 1.795 -18 1.465 -18 1.125 C-11.95890925 0.2440076 -6.1007632 -0.02773074 0 0 Z " fill="#CD9493" transform="translate(129,7.875)"/>
<path d="M0 0 C0 0.33 0 0.66 0 1 C-0.81678223 1.01981934 -1.63356445 1.03963867 -2.47509766 1.06005859 C-6.1920444 1.15558143 -9.90845019 1.26515124 -13.625 1.375 C-14.91019531 1.4059375 -16.19539063 1.436875 -17.51953125 1.46875 C-18.76347656 1.50742187 -20.00742188 1.54609375 -21.2890625 1.5859375 C-23.00150146 1.63306885 -23.00150146 1.63306885 -24.74853516 1.68115234 C-28.10871992 2.01066138 -30.84506992 2.82563861 -34 4 C-46.29334133 7.67666467 -46.29334133 7.67666467 -53 6 C-38.80447957 -3.46368029 -16.28074739 -0.40619848 0 0 Z " fill="#7F5252" transform="translate(144,1)"/>
<path d="M0 0 C0.66 0.33 1.32 0.66 2 1 C1.53207031 1.65613281 1.06414062 2.31226562 0.58203125 2.98828125 C-1.34430266 6.65545026 -1.86110148 10.13225317 -2.3125 14.1875 C-2.41111328 14.91130859 -2.50972656 15.63511719 -2.61132812 16.38085938 C-2.83502592 18.2450077 -2.92712125 20.12389276 -3 22 C-2.34 22.66 -1.68 23.32 -1 24 C-1.375 27.125 -1.375 27.125 -2 30 C-6.25163042 23.62255437 -6.9270615 16.51582 -6 9 C-4.6492363 5.42557341 -2.71102527 2.71102527 0 0 Z " fill="#77504F" transform="translate(99,82)"/>
<path d="M0 0 C0.66 0.33 1.32 0.66 2 1 C1.9278125 1.58523437 1.855625 2.17046875 1.78125 2.7734375 C0.44779802 15.10786827 0.41186106 27.69192324 2 40 C1.34 40 0.68 40 0 40 C-1.80352204 32.97914635 -2.21795934 26.08681934 -2.25 18.875 C-2.26353516 17.62348145 -2.26353516 17.62348145 -2.27734375 16.34667969 C-2.25049528 10.6659909 -1.45115414 5.4889327 0 0 Z " fill="#A16365" transform="translate(69,94)"/>
<path d="M0 0 C-0.33 0.99 -0.66 1.98 -1 3 C-1.66 3 -2.32 3 -3 3 C-3.268125 3.804375 -3.53625 4.60875 -3.8125 5.4375 C-4.204375 6.283125 -4.59625 7.12875 -5 8 C-5.99 8.33 -6.98 8.66 -8 9 C-8.1546875 9.86625 -8.1546875 9.86625 -8.3125 10.75 C-9.38110094 14.24723944 -12.0773983 16.02130076 -15 18 C-17.875 19.3125 -17.875 19.3125 -20 20 C-18.57937485 16.7731002 -16.85754559 14.60057488 -14.375 12.109375 C-13.66859375 11.40039062 -12.9621875 10.69140625 -12.234375 9.9609375 C-11.49703125 9.23132812 -10.7596875 8.50171875 -10 7.75 C-9.26265625 7.00492188 -8.5253125 6.25984375 -7.765625 5.4921875 C-6.70601562 4.43644531 -6.70601562 4.43644531 -5.625 3.359375 C-4.97789063 2.71452148 -4.33078125 2.06966797 -3.6640625 1.40527344 C-2 0 -2 0 0 0 Z " fill="#7E5654" transform="translate(48,30)"/>
<path d="M0 0 C3.24271506 0.5590888 4.93057424 1.4132178 7 4 C7 4.66 7 5.32 7 6 C7.66 6 8.32 6 9 6 C10.65625 7.609375 10.65625 7.609375 12.5 9.75 C13.1084375 10.44609375 13.716875 11.1421875 14.34375 11.859375 C15.87976963 13.84460792 16.9723966 15.71872045 18 18 C15 18 15 18 12.80859375 16.06640625 C12.02613281 15.24011719 11.24367188 14.41382813 10.4375 13.5625 C7.53104307 10.36158822 7.53104307 10.36158822 4 8 C2.25160484 5.34243936 1.00872518 3.02617555 0 0 Z " fill="#714847" transform="translate(26,210)"/>
<path d="M0 0 C2.68900563 2.68900563 3.90134516 5.89121248 5.4375 9.3125 C7.41691135 13.70125936 9.41943731 17.92002779 12 22 C11.34 22.66 10.68 23.32 10 24 C8.68085608 21.92062051 7.36961787 19.83691981 6.0625 17.75 C5.68931641 17.16347656 5.31613281 16.57695312 4.93164062 15.97265625 C3.07311237 12.99231365 1.77216733 10.41379239 1 7 C0.34 6.67 -0.32 6.34 -1 6 C-0.67 4.02 -0.34 2.04 0 0 Z " fill="#7D5755" transform="translate(10,179)"/>
<path d="M0 0 C0.66 0.33 1.32 0.66 2 1 C1.67 5.95 1.34 10.9 1 16 C0.34 16 -0.32 16 -1 16 C-1.103125 17.11375 -1.20625 18.2275 -1.3125 19.375 C-1.929197 24.43554302 -3.42506148 29.16622643 -5 34 C-5.66 33.67 -6.32 33.34 -7 33 C-6.74605469 32.04222656 -6.49210938 31.08445313 -6.23046875 30.09765625 C-3.63870732 20.13478386 -1.65942613 10.15769934 0 0 Z " fill="#A45C5D" transform="translate(258,143)"/>
<path d="M0 0 C0.66 0 1.32 0 2 0 C1.6684371 3.0945871 0.97117406 4.02804686 -1.3125 6.25 C-4 8 -4 8 -8 8 C-8 8.66 -8 9.32 -8 10 C-11.63 11.32 -15.26 12.64 -19 14 C-18.34 12.68 -17.68 11.36 -17 10 C-13.875 9.25 -13.875 9.25 -11 9 C-11 8.34 -11 7.68 -11 7 C-10.37351563 6.66226563 -9.74703125 6.32453125 -9.1015625 5.9765625 C-8.28429687 5.53054687 -7.46703125 5.08453125 -6.625 4.625 C-5.81289062 4.18414062 -5.00078125 3.74328125 -4.1640625 3.2890625 C-1.89185698 2.0556107 -1.89185698 2.0556107 0 0 Z " fill="#835456" transform="translate(220,187)"/>
<path d="M0 0 C0.33 0 0.66 0 1 0 C1.19493195 2.27020744 1.38070418 4.54120289 1.5625 6.8125 C1.66691406 8.07707031 1.77132812 9.34164062 1.87890625 10.64453125 C2 14 2 14 1 17 C0.73221002 20.0604569 0.555558 23.12052496 0.37890625 26.1875 C0 29 0 29 -2 32 C-2.88422555 27.68904731 -2.98109779 24.08727017 -2.44140625 19.7265625 C-2.30283203 18.57285156 -2.16425781 17.41914063 -2.02148438 16.23046875 C-1.87001953 15.04066406 -1.71855469 13.85085937 -1.5625 12.625 C-1.41490234 11.41199219 -1.26730469 10.19898438 -1.11523438 8.94921875 C-0.75103479 5.96513179 -0.37905399 2.98223028 0 0 Z " fill="#5B3F3B" transform="translate(97,131)"/>
<path d="M0 0 C0 0.33 0 0.66 0 1 C-4.74056308 2.07044973 -9.47476709 3.09657756 -14.25 4 C-17.02399376 4.53759569 -19.30287074 5.12243711 -21.9375 6.1875 C-24 7 -24 7 -27 6 C-24.75 3.9375 -24.75 3.9375 -22 2 C-19.6875 2.25 -19.6875 2.25 -18 3 C-18 2.34 -18 1.68 -18 1 C-12.03726175 -1.81573751 -6.3322014 -0.75822476 0 0 Z " fill="#784747" transform="translate(154,17)"/>
<path d="M0 0 C0.33 0.66 0.66 1.32 1 2 C0.113125 2.556875 -0.77375 3.11375 -1.6875 3.6875 C-3.9392411 5.17638488 -5.51726038 6.53052346 -7.4375 8.5 C-10.43154362 11.42101816 -13.3154601 13.04936123 -17 15 C-17.66 14.34 -18.32 13.68 -19 13 C-12.96687848 8.07440803 -6.766111 3.8562595 0 0 Z " fill="#805557" transform="translate(67,16)"/>
<path d="M0 0 C2.58108923 2.61505093 2.99847569 3.98274269 3.328125 7.71484375 C3.31755033 9.122597 3.29104851 10.53030561 3.25 11.9375 C3.24484375 12.64068359 3.2396875 13.34386719 3.234375 14.06835938 C3.17808821 17.82198438 2.88569414 21.35008304 2 25 C1.67 25 1.34 25 1 25 C-0.06314353 20.47713514 -0.35682013 15.99715888 -0.625 11.375 C-0.6765625 10.611875 -0.728125 9.84875 -0.78125 9.0625 C-0.98061508 5.72020314 -1.06879786 3.20639358 0 0 Z " fill="#784D4E" transform="translate(251,122)"/>
<path d="M0 0 C2.66929037 4.00393555 5.09165231 8.15005914 7.546875 12.28710938 C9.92409794 16.27174984 12.39327185 20.16132498 15 24 C14.01 24 13.02 24 12 24 C12 23.34 12 22.68 12 22 C11.34 22 10.68 22 10 22 C10 21.01 10 20.02 10 19 C9.34 19 8.68 19 8 19 C6.5625 16.98828125 6.5625 16.98828125 5 14.3125 C4.484375 13.44238281 3.96875 12.57226562 3.4375 11.67578125 C1.2004391 7.51168692 0 4.78531534 0 0 Z " fill="#945F5F" transform="translate(76,150)"/>
<path d="M0 0 C0.66 0 1.32 0 2 0 C1.72414063 0.68449219 1.44828125 1.36898437 1.1640625 2.07421875 C-0.12376632 5.31107709 -1.37664963 8.56021876 -2.625 11.8125 C-3.07101563 12.97394531 -3.51703125 14.13539062 -3.9765625 15.33203125 C-4.31429687 16.21246094 -4.65203125 17.09289062 -5 18 C-5.33 18 -5.66 18 -6 18 C-6.57042254 7.11971831 -6.57042254 7.11971831 -3 3 C-2.34 3 -1.68 3 -1 3 C-0.67 2.01 -0.34 1.02 0 0 Z " fill="#9B5E5E" transform="translate(79,65)"/>
<path d="M0 0 C0.66 0.33 1.32 0.66 2 1 C-0.90561868 4.57535348 -3.75810118 7.93620427 -7.375 10.8125 C-8.24125 11.534375 -9.1075 12.25625 -10 13 C-10 13.66 -10 14.32 -10 15 C-11.75 16.7265625 -11.75 16.7265625 -14 18.625 C-15.11375 19.57246094 -15.11375 19.57246094 -16.25 20.5390625 C-16.8275 21.02117188 -17.405 21.50328125 -18 22 C-18 18.0369954 -16.72653651 17.24396239 -14.0625 14.375 C-12.84433594 13.06015625 -12.84433594 13.06015625 -11.6015625 11.71875 C-7.79957855 7.74550551 -3.93005465 3.84643647 0 0 Z " fill="#BA7A7B" transform="translate(99,31)"/>
<path d="M0 0 C-2.40118527 2.40118527 -4.05496042 2.75220861 -7.3125 3.625 C-8.25738281 3.88539063 -9.20226562 4.14578125 -10.17578125 4.4140625 C-12.87851902 4.97479648 -15.25031848 5.1101876 -18 5 C-13.00735597 -0.99117283 -7.35292665 -1.50059728 0 0 Z " fill="#835859" transform="translate(173,254)"/>
<path d="M0 0 C3.25295803 2.16863869 3.62795048 2.95592435 5 6.4375 C6.28387415 9.6846317 7.5188672 11.57905641 10 14 C11.1875 17.1875 11.1875 17.1875 12 20 C11.34 20.33 10.68 20.66 10 21 C10 20.34 10 19.68 10 19 C9.34 19 8.68 19 8 19 C7.87625 18.195625 7.7525 17.39125 7.625 16.5625 C7.41875 15.716875 7.2125 14.87125 7 14 C6.34 13.67 5.68 13.34 5 13 C4.05790983 11.22144796 3.19286047 9.40149035 2.375 7.5625 C1.70597656 6.07943359 1.70597656 6.07943359 1.0234375 4.56640625 C0 2 0 2 0 0 Z " fill="#633A3A" transform="translate(235,70)"/>
<path d="M0 0 C0.99 0.33 1.98 0.66 3 1 C1.625 3 1.625 3 0 5 C-0.66 5 -1.32 5 -2 5 C-2.26554687 5.56203125 -2.53109375 6.1240625 -2.8046875 6.703125 C-4.09331034 9.17930222 -5.56130361 11.43844882 -7.125 13.75 C-7.93324219 14.94882812 -7.93324219 14.94882812 -8.7578125 16.171875 C-9.16773437 16.77515625 -9.57765625 17.3784375 -10 18 C-10.703125 16.328125 -10.703125 16.328125 -11 14 C-9.671875 11.421875 -9.671875 11.421875 -7.75 8.75 C-7.12609375 7.85796875 -6.5021875 6.9659375 -5.859375 6.046875 C-5.24578125 5.37140625 -4.6321875 4.6959375 -4 4 C-3.01 4 -2.02 4 -1 4 C-0.67 2.68 -0.34 1.36 0 0 Z " fill="#865253" transform="translate(94,44)"/>
<path d="M0 0 C0.66 0.33 1.32 0.66 2 1 C2 5.29 2 9.58 2 14 C1.01 14.495 1.01 14.495 0 15 C0 14.01 0 13.02 0 12 C-0.99 12 -1.98 12 -3 12 C-2.68950274 10.56206608 -2.3765224 9.1246682 -2.0625 7.6875 C-1.88847656 6.88699219 -1.71445313 6.08648437 -1.53515625 5.26171875 C-1 3 -1 3 0 0 Z " fill="#845656" transform="translate(6,87)"/>
<path d="M0 0 C0.66 1.32 1.32 2.64 2 4 C2.66 4 3.32 4 4 4 C4 5.65 4 7.3 4 9 C2.35 9.66 0.7 10.32 -1 11 C-2.1875 7.75 -2.1875 7.75 -3 4 C-1.625 1.5625 -1.625 1.5625 0 0 Z " fill="#B17475" transform="translate(247,78)"/>
<path d="M0 0 C1.32 0.33 2.64 0.66 4 1 C0.535 8.425 0.535 8.425 -3 16 C-4.02046249 11.91815005 -3.99039724 11.13910445 -2.625 7.4375 C-2.34914062 6.67308594 -2.07328125 5.90867188 -1.7890625 5.12109375 C-1.52867187 4.42113281 -1.26828125 3.72117188 -1 3 C-0.67 2.01 -0.34 1.02 0 0 Z " fill="#8E5C5D" transform="translate(248,178)"/>
<path d="M0 0 C0.99 0.66 1.98 1.32 3 2 C2.31292969 2.19335938 1.62585938 2.38671875 0.91796875 2.5859375 C0.01691406 2.84632812 -0.88414062 3.10671875 -1.8125 3.375 C-2.70582031 3.63023438 -3.59914062 3.88546875 -4.51953125 4.1484375 C-7.20467896 4.95266661 -7.20467896 4.95266661 -10 7 C-10.99 7 -11.98 7 -13 7 C-13 7.66 -13 8.32 -13 9 C-14.65 9 -16.3 9 -18 9 C-14.34138274 5.80727408 -10.89577238 3.88134605 -6.375 2.125 C-5.24835938 1.67382812 -4.12171875 1.22265625 -2.9609375 0.7578125 C-1.98382813 0.50773437 -1.00671875 0.25765625 0 0 Z " fill="#714648" transform="translate(146,62)"/>
<path d="M0 0 C6.40140935 0.46555704 11.26769829 2.14711836 17 5 C16.01 5.66 15.02 6.32 14 7 C13.34 6.67 12.68 6.34 12 6 C12 5.34 12 4.68 12 4 C10.948125 4.0825 9.89625 4.165 8.8125 4.25 C4.46236331 3.96474513 3.0684847 2.97550031 0 0 Z " fill="#875A5A" transform="translate(168,63)"/>
<path d="M0 0 C1.32 0.66 2.64 1.32 4 2 C2.23494565 2.86604534 0.46271926 3.71748642 -1.3125 4.5625 C-2.79169922 5.27599609 -2.79169922 5.27599609 -4.30078125 6.00390625 C-7 7 -7 7 -10 6 C-7.41804126 2.12706189 -5.39076016 2.11764804 -1 1 C-0.67 0.67 -0.34 0.34 0 0 Z " fill="#835253" transform="translate(183,247)"/>
<path d="M0 0 C0.66 0 1.32 0 2 0 C2.69640673 2.12209776 3.38188357 4.24778527 4.0625 6.375 C4.44535156 7.55835938 4.82820313 8.74171875 5.22265625 9.9609375 C6 13 6 13 5 15 C4.34 14.67 3.68 14.34 3 14 C2.59270772 11.67843403 2.25561323 9.3431213 2 7 C1.34 7 0.68 7 0 7 C0 4.69 0 2.38 0 0 Z " fill="#9A6463" transform="translate(70,135)"/>
<path d="M0 0 C-0.33 0.99 -0.66 1.98 -1 3 C-1.66 3 -2.32 3 -3 3 C-3.2475 3.763125 -3.495 4.52625 -3.75 5.3125 C-5.1255271 8.26988327 -6.15451051 9.44791483 -9 11 C-9.99 10.67 -10.98 10.34 -12 10 C-10.38113585 8.32737283 -8.7547271 6.66204463 -7.125 5 C-6.22007813 4.071875 -5.31515625 3.14375 -4.3828125 2.1875 C-2 0 -2 0 0 0 Z " fill="#6C4848" transform="translate(48,30)"/>
<path d="M0 0 C0.78375 0.185625 1.5675 0.37125 2.375 0.5625 C4.97089775 1.25962266 4.97089775 1.25962266 7 0 C9.01927511 0.60578253 11.02253397 1.26919734 13 2 C13 2.99 13 3.98 13 5 C13.66 5.33 14.32 5.66 15 6 C9.45949887 5.43174347 4.96284034 3.37113483 0 1 C0 0.67 0 0.34 0 0 Z " fill="#6F4647" transform="translate(74,249)"/>
<path d="M0 0 C0.99 0 1.98 0 3 0 C3.33 3.96 3.66 7.92 4 12 C3.01 12.33 2.02 12.66 1 13 C0.67 8.71 0.34 4.42 0 0 Z " fill="#77494A" transform="translate(0,146)"/>
<path d="M0 0 C-3.54039134 2.9156164 -7.1626772 5.50127818 -11 8 C-11.66 7.67 -12.32 7.34 -13 7 C-5.875 -0.31756757 -5.875 -0.31756757 0 0 Z " fill="#7F4F50" transform="translate(206,237)"/>
<path d="M0 0 C0.66 0 1.32 0 2 0 C0.49087042 4.98012761 -2.55661849 8.24259942 -6 12 C-6.64453125 10.16015625 -6.64453125 10.16015625 -7 8 C-4.6875 5.4375 -4.6875 5.4375 -2 3 C-1.34 2.01 -0.68 1.02 0 0 Z " fill="#865858" transform="translate(212,184)"/>
<path d="M0 0 C0.33 0 0.66 0 1 0 C1.20375803 3.6676445 0.80451285 5.81556555 -1 9 C-1.33 9.99 -1.66 10.98 -2 12 C-4.0625 12.6875 -4.0625 12.6875 -6 13 C-4.58707905 8.1725201 -2.57025846 4.2837641 0 0 Z " fill="#694142" transform="translate(16,66)"/>
<path d="M0 0 C1.98 0 3.96 0 6 0 C6 0.66 6 1.32 6 2 C6.94875 2.103125 7.8975 2.20625 8.875 2.3125 C12 3 12 3 14 6 C12.35232753 5.71890887 10.70686855 5.42481474 9.0625 5.125 C8.14597656 4.96257812 7.22945312 4.80015625 6.28515625 4.6328125 C5.15400391 4.31957031 5.15400391 4.31957031 4 4 C3.67 3.34 3.34 2.68 3 2 C2.01 1.34 1.02 0.68 0 0 Z " fill="#914F4E" transform="translate(200,75)"/>
<path d="M0 0 C0.66 0.33 1.32 0.66 2 1 C0.35 5.29 -1.3 9.58 -3 14 C-4.24142712 9.03429151 -3.37261666 6.84452938 -2 2 C-1.34 2 -0.68 2 0 2 C0 1.34 0 0.68 0 0 Z " fill="#9A5C5C" transform="translate(218,170)"/>
<path d="M0 0 C2.38564077 0.57584432 4.66682784 1.22227595 7 2 C7.625 4.375 7.625 4.375 8 7 C7.34 7.66 6.68 8.32 6 9 C4.99712471 7.68969568 3.99777175 6.37669473 3 5.0625 C2.443125 4.33160156 1.88625 3.60070313 1.3125 2.84765625 C0 1 0 1 0 0 Z " fill="#744B4A" transform="translate(222,52)"/>
<path d="M0 0 C0.33 0.99 0.66 1.98 1 3 C-0.97986082 2.88652381 -2.95891598 2.7589065 -4.9375 2.625 C-6.03964844 2.55539062 -7.14179687 2.48578125 -8.27734375 2.4140625 C-9.17582031 2.27742188 -10.07429688 2.14078125 -11 2 C-11.33 1.34 -11.66 0.68 -12 0 C-7.91556885 -1.53166168 -4.20544343 -0.63081652 0 0 Z " fill="#7E4F4F" transform="translate(108,257)"/>
<path d="M0 0 C0 4.15560231 -2.2820452 5.84099329 -5 8.6875 C-5.47695312 9.19861328 -5.95390625 9.70972656 -6.4453125 10.23632812 C-7.62359915 11.49709484 -8.81095253 12.74937686 -10 14 C-10.66 13.34 -11.32 12.68 -12 12 C-8.04 8.04 -4.08 4.08 0 0 Z " fill="#503434" transform="translate(234,174)"/>
<path d="M0 0 C2.475 0.99 2.475 0.99 5 2 C4.34 2.66 3.68 3.32 3 4 C3.34761621 7.75425503 3.9834624 11.36950856 5 15 C2.4061813 12.72676563 1.31688531 10.76597542 0.25 7.5 C-0.01296875 6.7265625 -0.2759375 5.953125 -0.546875 5.15625 C-1 3 -1 3 0 0 Z " fill="#563B3A" transform="translate(96,166)"/>
<path d="M0 0 C2.55694972 3.83542457 2.04045639 5.65902533 1.625 10.1875 C1.51414063 11.45980469 1.40328125 12.73210937 1.2890625 14.04296875 C1.19367188 15.01878906 1.09828125 15.99460937 1 17 C0.67 17 0.34 17 0 17 C-0.19493195 14.72979256 -0.38070418 12.45879711 -0.5625 10.1875 C-0.66691406 8.92292969 -0.77132812 7.65835938 -0.87890625 6.35546875 C-1 3 -1 3 0 0 Z " fill="#634141" transform="translate(250,104)"/>
<path d="M0 0 C0 2 0 2 -1.6796875 3.69140625 C-2.40414062 4.30886719 -3.12859375 4.92632812 -3.875 5.5625 C-4.59429687 6.18253906 -5.31359375 6.80257812 -6.0546875 7.44140625 C-8 9 -8 9 -10 10 C-9.41978222 6.7451198 -8.47352859 5.06347592 -6.125 2.75 C-5.61195313 2.22921875 -5.09890625 1.7084375 -4.5703125 1.171875 C-3 0 -3 0 0 0 Z " fill="#7B4B4B" transform="translate(226,219)"/>
<path d="M0 0 C0.66 0.33 1.32 0.66 2 1 C0.68 5.29 -0.64 9.58 -2 14 C-2.66 13.67 -3.32 13.34 -4 13 C-3.52511102 11.01980257 -3.04497141 9.04086365 -2.5625 7.0625 C-2.29566406 5.96035156 -2.02882812 4.85820312 -1.75390625 3.72265625 C-1 1 -1 1 0 0 Z " fill="#8C5253" transform="translate(255,163)"/>
<path d="M0 0 C0.66 0.99 1.32 1.98 2 3 C1.125 5.6875 1.125 5.6875 0 8 C-0.99 7.34 -1.98 6.68 -3 6 C-3.1875 3.375 -3.1875 3.375 -3 1 C-2.01 0.67 -1.02 0.34 0 0 Z " fill="#B17171" transform="translate(228,47)"/>
<path d="M0 0 C0.33 0.66 0.66 1.32 1 2 C-0.36125 2.86625 -0.36125 2.86625 -1.75 3.75 C-4.52022946 5.66785116 -6.71945499 7.54402845 -9 10 C-9.66 9.01 -10.32 8.02 -11 7 C-7.37 4.69 -3.74 2.38 0 0 Z " fill="#895249" transform="translate(67,16)"/>
<path d="M0 0 C-3.29324523 2.19549682 -6.48187121 4.17811188 -10 6 C-10.99 5.67 -11.98 5.34 -13 5 C-12.01 4.67 -11.02 4.34 -10 4 C-9.67 3.01 -9.34 2.02 -9 1 C-5.78578255 -1.29586961 -3.71609706 -1.03224918 0 0 Z " fill="#7A4A4A" transform="translate(127,24)"/>
<path d="M0 0 C4.95 0 9.9 0 15 0 C14.67 0.66 14.34 1.32 14 2 C9.04413531 3.26968434 4.57906464 3.51109996 0 1 C0 0.67 0 0.34 0 0 Z " fill="#E2A5A7" transform="translate(132,9)"/>
<path d="M0 0 C-0.99 0.33 -1.98 0.66 -3 1 C-3 1.66 -3 2.32 -3 3 C-6.3 2.67 -9.6 2.34 -13 2 C-13 1.67 -13 1.34 -13 1 C-11.39796533 0.63631108 -9.79325797 0.28438048 -8.1875 -0.0625 C-7.29417969 -0.25972656 -6.40085938 -0.45695312 -5.48046875 -0.66015625 C-3 -1 -3 -1 0 0 Z " fill="#9C6363" transform="translate(158,257)"/>
<path d="M0 0 C4.95 0.99 4.95 0.99 10 2 C10.33 3.32 10.66 4.64 11 6 C6.95743617 4.77782954 3.50711041 3.37245704 0 1 C0 0.67 0 0.34 0 0 Z " fill="#7D4641" transform="translate(63,243)"/>
<path d="M0 0 C0.33 0.66 0.66 1.32 1 2 C-0.47563225 4.9512645 -2.50079352 5.06923915 -5.5625 6.125 C-6.57441406 6.47820312 -7.58632812 6.83140625 -8.62890625 7.1953125 C-9.41136719 7.46085938 -10.19382813 7.72640625 -11 8 C-10.1953125 6.046875 -10.1953125 6.046875 -9 4 C-5.875 3.25 -5.875 3.25 -3 3 C-3 2.34 -3 1.68 -3 1 C-2.01 0.67 -1.02 0.34 0 0 Z " fill="#603738" transform="translate(212,193)"/>
<path d="M0 0 C0.66 1.32 1.32 2.64 2 4 C1.525625 4.433125 1.05125 4.86625 0.5625 5.3125 C-1.23686957 7.02309613 -1.23686957 7.02309613 -2 10 C-2.99 10 -3.98 10 -5 10 C-3.66511872 6.40608886 -2.03977277 3.24509304 0 0 Z " fill="#6E4545" transform="translate(245,157)"/>
<path d="M0 0 C5.35152885 0.32433508 8.28280043 3.49704824 12 7 C11.01 7 10.02 7 9 7 C8.34 6.34 7.68 5.68 7 5 C6.175 4.690625 5.35 4.38125 4.5 4.0625 C2 3 2 3 0 0 Z " fill="#7F5353" transform="translate(203,34)"/>
<path d="M0 0 C1.258125 0.12375 2.51625 0.2475 3.8125 0.375 C4.87404297 0.47941406 4.87404297 0.47941406 5.95703125 0.5859375 C8 1 8 1 11 3 C4.375 4.125 4.375 4.125 1 3 C0.67 2.01 0.34 1.02 0 0 Z " fill="#8D5B5C" transform="translate(161,5)"/>
<path d="M0 0 C0.99 0.33 1.98 0.66 3 1 C0.69 3.64 -1.62 6.28 -4 9 C-4.33 8.01 -4.66 7.02 -5 6 C-3.59554165 3.7363436 -1.8032087 1.9791315 0 0 Z " fill="#845456" transform="translate(231,210)"/>
<path d="M0 0 C3.375 4.5 3.375 4.5 3.1875 8.75 C3.16042969 9.54921875 3.13335937 10.3484375 3.10546875 11.171875 C3.07066406 11.77515625 3.03585938 12.3784375 3 13 C2.01 13.495 2.01 13.495 1 14 C0.67 9.38 0.34 4.76 0 0 Z " fill="#9D5555" transform="translate(217,131)"/>
<path d="M0 0 C0.99 0.66 1.98 1.32 3 2 C0.36 3.65 -2.28 5.3 -5 7 C-5 5.35 -5 3.7 -5 2 C-2.6875 0.875 -2.6875 0.875 0 0 Z " fill="#805153" transform="translate(105,34)"/>
<path d="M0 0 C2.64 0.66 5.28 1.32 8 2 C8.33 3.32 8.66 4.64 9 6 C7.35 5.67 5.7 5.34 4 5 C4 4.34 4 3.68 4 3 C2.68 2.34 1.36 1.68 0 1 C0 0.67 0 0.34 0 0 Z " fill="#734040" transform="translate(54,237)"/>
<path d="M0 0 C0.66 0 1.32 0 2 0 C1.34 4.62 0.68 9.24 0 14 C-0.33 14 -0.66 14 -1 14 C-1.02685938 11.85423363 -1.04633088 9.70837355 -1.0625 7.5625 C-1.07410156 6.36753906 -1.08570313 5.17257813 -1.09765625 3.94140625 C-1 1 -1 1 0 0 Z " fill="#BC7A7E" transform="translate(9,101)"/>
<path d="M0 0 C0.66 0.33 1.32 0.66 2 1 C1.34 3.97 0.68 6.94 0 10 C-0.99 10 -1.98 10 -3 10 C-2.69201674 8.51988629 -2.378482 7.04092675 -2.0625 5.5625 C-1.88847656 4.73878906 -1.71445313 3.91507812 -1.53515625 3.06640625 C-1 1 -1 1 0 0 Z " fill="#945959" transform="translate(221,101)"/>
<path d="M0 0 C0.66 0 1.32 0 2 0 C1.71125 0.70125 1.4225 1.4025 1.125 2.125 C-0.02133588 5.05452503 -1.02625654 8.00921653 -2 11 C-4 8 -4 8 -3.625 5.3125 C-3.41875 4.549375 -3.2125 3.78625 -3 3 C-2.34 3 -1.68 3 -1 3 C-0.67 2.01 -0.34 1.02 0 0 Z " fill="#915252" transform="translate(79,65)"/>
<path d="M0 0 C0.66 0.33 1.32 0.66 2 1 C1.3125 3.4375 1.3125 3.4375 0 6 C-2.625 6.8125 -2.625 6.8125 -5 7 C-3.75023244 3.34683329 -3.32901247 2.21934164 0 0 Z " fill="#70504F" transform="translate(27,50)"/>
<path d="M0 0 C0.99 0.33 1.98 0.66 3 1 C0.8614515 3.1385485 -0.13275314 3.42655063 -3 4 C-3 4.66 -3 5.32 -3 6 C-4.32 6 -5.64 6 -7 6 C-7 5.34 -7 4.68 -7 4 C-5.35 3.67 -3.7 3.34 -2 3 C-2 2.34 -2 1.68 -2 1 C-1.34 0.67 -0.68 0.34 0 0 Z " fill="#9D6868" transform="translate(88,7)"/>
<path d="M0 0 C2.31 0.33 4.62 0.66 7 1 C4.23776722 3.76223278 1.79293383 3.57856291 -2 4 C-1.34 2.68 -0.68 1.36 0 0 Z " fill="#784949" transform="translate(166,253)"/>
<path d="M0 0 C1.32 0.66 2.64 1.32 4 2 C2.35 4.31 0.7 6.62 -1 9 C-1.33 8.01 -1.66 7.02 -2 6 C-1.34 6 -0.68 6 0 6 C0 4.02 0 2.04 0 0 Z " fill="#9C5253" transform="translate(236,200)"/>
<path d="M0 0 C2 3 2 3 1.625 6.1875 C1.41875 7.115625 1.2125 8.04375 1 9 C0.01 8.67 -0.98 8.34 -2 8 C-1.34 5.36 -0.68 2.72 0 0 Z " fill="#B07C7A" transform="translate(104,182)"/>
<path d="M0 0 C0.66 0.33 1.32 0.66 2 1 C-0.64 3.64 -3.28 6.28 -6 9 C-6.66 8.34 -7.32 7.68 -8 7 C-5.36 4.69 -2.72 2.38 0 0 Z " fill="#BB8581" transform="translate(173,129)"/>
<path d="M0 0 C0.66 0.99 1.32 1.98 2 3 C1.25 4.9375 1.25 4.9375 0 7 C-2.125 7.75 -2.125 7.75 -4 8 C-2.87548273 5.0280615 -1.77706209 2.66559313 0 0 Z " fill="#6E4647" transform="translate(21,58)"/>
<path d="M0 0 C0.66 0 1.32 0 2 0 C4.125 6.75 4.125 6.75 3 9 C2.34 8.67 1.68 8.34 1 8 C0.40644386 5.35139573 0.25790731 2.70802678 0 0 Z " fill="#926363" transform="translate(100,177)"/>
<path d="M0 0 C0.33 0 0.66 0 1 0 C1 3.63 1 7.26 1 11 C0.01 11.33 -0.98 11.66 -2 12 C-1.34 8.04 -0.68 4.08 0 0 Z " fill="#9B6C6B" transform="translate(97,154)"/>
<path d="M0 0 C2.0625 1.625 2.0625 1.625 4 4 C3.75 7.25 3.75 7.25 3 10 C0.70366176 6.55549263 0.45983515 4.06187717 0 0 Z " fill="#5A3B3B" transform="translate(94,102)"/>
<path d="M0 0 C2.475 0.99 2.475 0.99 5 2 C5.33 4.31 5.66 6.62 6 9 C3.72494996 6.83328568 1.76424908 4.60436769 0 2 C0 1.34 0 0.68 0 0 Z " fill="#613536" transform="translate(229,61)"/>
<path d="M0 0 C7.50769231 -0.36923077 7.50769231 -0.36923077 10 1.5 C10.495 2.2425 10.495 2.2425 11 3 C6.78121808 3.19622241 3.82989106 2.80230168 0 1 C0 0.67 0 0.34 0 0 Z " fill="#864747" transform="translate(171,17)"/>
<path d="M0 0 C4.875 2.625 4.875 2.625 6 6 C5.34 6.66 4.68 7.32 4 8 C0 2.25 0 2.25 0 0 Z " fill="#5D3D3E" transform="translate(16,195)"/>
<path d="M0 0 C0.99 0 1.98 0 3 0 C3.625 2.3125 3.625 2.3125 4 5 C3.01 6.485 3.01 6.485 2 8 C1.01 5.69 0.02 3.38 -1 1 C-0.67 0.67 -0.34 0.34 0 0 Z " fill="#664443" transform="translate(6,173)"/>
<path d="M0 0 C-0.33 1.32 -0.66 2.64 -1 4 C-3.31 4.33 -5.62 4.66 -8 5 C-3.16129032 0 -3.16129032 0 0 0 Z " fill="#6B4948" transform="translate(109,77)"/>
<path d="M0 0 C3.63 0.66 7.26 1.32 11 2 C11 2.33 11 2.66 11 3 C7.7 3 4.4 3 1 3 C0.67 2.01 0.34 1.02 0 0 Z " fill="#894847" transform="translate(189,72)"/>
<path d="M0 0 C0.33 1.32 0.66 2.64 1 4 C-1.375 5.0625 -1.375 5.0625 -4 6 C-4.66 5.67 -5.32 5.34 -6 5 C-5.195625 4.731875 -4.39125 4.46375 -3.5625 4.1875 C-2.716875 3.795625 -1.87125 3.40375 -1 3 C-0.67 2.01 -0.34 1.02 0 0 Z " fill="#A87677" transform="translate(69,15)"/>
<path d="M0 0 C1.52519276 0.08937803 3.04681929 0.24537146 4.5625 0.4375 C5.80193359 0.59025391 5.80193359 0.59025391 7.06640625 0.74609375 C7.70449219 0.82988281 8.34257812 0.91367187 9 1 C9 1.33 9 1.66 9 2 C2.9453125 2.9765625 2.9453125 2.9765625 1 3 C0.34 2.34 -0.32 1.68 -1 1 C-0.67 0.67 -0.34 0.34 0 0 Z " fill="#8A5B5C" transform="translate(152,3)"/>
<path d="M0 0 C0.99 0.33 1.98 0.66 3 1 C1.35 2.65 -0.3 4.3 -2 6 C-2.66 5.34 -3.32 4.68 -4 4 C-2.68 3.34 -1.36 2.68 0 2 C0 1.34 0 0.68 0 0 Z " fill="#8B5555" transform="translate(209,231)"/>
<path d="M0 0 C2.91517292 1.07401108 4.77810176 1.77810176 7 4 C5.02 4 3.04 4 1 4 C0.67 2.68 0.34 1.36 0 0 Z " fill="#8B5F5E" transform="translate(192,17)"/>
<path d="M0 0 C-3.3 1.32 -6.6 2.64 -10 4 C-10.66 3.34 -11.32 2.68 -12 2 C-10.75579353 1.4654744 -9.50429064 0.94791389 -8.25 0.4375 C-7.55390625 0.14746094 -6.8578125 -0.14257812 -6.140625 -0.44140625 C-4 -1 -4 -1 0 0 Z " fill="#DCA4A3" transform="translate(98,14)"/>
<path d="M0 0 C0.99 0.33 1.98 0.66 3 1 C2.01 1.33 1.02 1.66 0 2 C0 1.34 0 0.68 0 0 Z " fill="#AEAEAE" transform="translate(56,243)"/>
<path d="M0 0 C0.33 0.66 0.66 1.32 1 2 C0.34 1.67 -0.32 1.34 -1 1 C-0.67 0.67 -0.34 0.34 0 0 Z " fill="#B3B3B3" transform="translate(7,183)"/>
<path d="M0 0 C2 1 2 1 2 1 Z " fill="#979797" transform="translate(230,72)"/>
<path d="M0 0 C2 1 2 1 2 1 Z " fill="#979797" transform="translate(168,59)"/>
<path d="M0 0 C2 1 2 1 2 1 Z " fill="#979797" transform="translate(58,17)"/>
<path d="" fill="#8E8E8E" transform="translate(0,0)"/>
<path d="" fill="#8E8E8E" transform="translate(0,0)"/>
<path d="" fill="#8E8E8E" transform="translate(0,0)"/>
<path d="" fill="#8E8E8E" transform="translate(0,0)"/>
<path d="" fill="#8E8E8E" transform="translate(0,0)"/>
<path d="" fill="#8E8E8E" transform="translate(0,0)"/>
<path d="" fill="#8E8E8E" transform="translate(0,0)"/>
<path d="" fill="#8E8E8E" transform="translate(0,0)"/>
<path d="" fill="#8E8E8E" transform="translate(0,0)"/>
<path d="" fill="#8E0000" transform="translate(0,0)"/>
<path d="" fill="#8E8E8E" transform="translate(0,0)"/>
<path d="" fill="#8E0000" transform="translate(0,0)"/>
<path d="" fill="#8E8E8E" transform="translate(0,0)"/>
<path d="" fill="#8E0000" transform="translate(0,0)"/>
<path d="" fill="#8E8E8E" transform="translate(0,0)"/>
<path d="" fill="#8E8E8E" transform="translate(0,0)"/>
<path d="" fill="#8E8E8E" transform="translate(0,0)"/>
<path d="" fill="#8E8E8E" transform="translate(0,0)"/>
<path d="" fill="#8E0000" transform="translate(0,0)"/>
<path d="" fill="#8E0000" transform="translate(0,0)"/>
<path d="" fill="#8E8E8E" transform="translate(0,0)"/>
<path d="" fill="#8E8E8E" transform="translate(0,0)"/>
<path d="" fill="#8E0000" transform="translate(0,0)"/>
<path d="" fill="#990B0B" transform="translate(0,0)"/>
<path d="" fill="#8E8E8E" transform="translate(0,0)"/>
<path d="" fill="#8E8E8E" transform="translate(0,0)"/>
<path d="" fill="#8E8E8E" transform="translate(0,0)"/>
<path d="" fill="#8E8E8E" transform="translate(0,0)"/>
<path d="" fill="#8E8E8E" transform="translate(0,0)"/>
<path d="" fill="#8E8E8E" transform="translate(0,0)"/>
<path d="" fill="#8E0000" transform="translate(0,0)"/>
<path d="" fill="#999999" transform="translate(0,0)"/>
<path d="" fill="#8E8E8E" transform="translate(0,0)"/>
<path d="" fill="#8E8E8E" transform="translate(0,0)"/>
<path d="" fill="#8E8E8E" transform="translate(0,0)"/>
<path d="" fill="#8E8E8E" transform="translate(0,0)"/>
<path d="" fill="#8E8E8E" transform="translate(0,0)"/>
<path d="" fill="#8E8E8E" transform="translate(0,0)"/>
<path d="" fill="#8E8E8E" transform="translate(0,0)"/>
<path d="" fill="#8E8E00" transform="translate(0,0)"/>
<path d="" fill="#8E8E8E" transform="translate(0,0)"/>
<path d="" fill="#8E0000" transform="translate(0,0)"/>
<path d="" fill="#8E8E8E" transform="translate(0,0)"/>
<path d="" fill="#8E8E8E" transform="translate(0,0)"/>
<path d="" fill="#8E8E8E" transform="translate(0,0)"/>
<path d="" fill="#8E8E8E" transform="translate(0,0)"/>
<path d="" fill="#8E8E8E" transform="translate(0,0)"/>
<path d="" fill="#8E8E8E" transform="translate(0,0)"/>
<path d="" fill="#8E8E8E" transform="translate(0,0)"/>
<path d="" fill="#8E0000" transform="translate(0,0)"/>
<path d="" fill="#8E8E8E" transform="translate(0,0)"/>
<path d="" fill="#8E8E8E" transform="translate(0,0)"/>
<path d="" fill="#8E8E8E" transform="translate(0,0)"/>
<path d="" fill="#8E8E8E" transform="translate(0,0)"/>
<path d="" fill="#8E8E8E" transform="translate(0,0)"/>
<path d="" fill="#8E8E8E" transform="translate(0,0)"/>
<path d="" fill="#8E0000" transform="translate(0,0)"/>
<path d="" fill="#8E8E8E" transform="translate(0,0)"/>
<path d="" fill="#8E8E8E" transform="translate(0,0)"/>
<path d="" fill="#8E8E8E" transform="translate(0,0)"/>
<path d="" fill="#8E8E8E" transform="translate(0,0)"/>
<path d="" fill="#8E8E8E" transform="translate(0,0)"/>
<path d="" fill="#8E8E8E" transform="translate(0,0)"/>
<path d="" fill="#8E8E8E" transform="translate(0,0)"/>
<path d="" fill="#8E8E8E" transform="translate(0,0)"/>
<path d="" fill="#8E8E8E" transform="translate(0,0)"/>
<path d="" fill="#8E8E8E" transform="translate(0,0)"/>
<path d="" fill="#8E8E8E" transform="translate(0,0)"/>
<path d="" fill="#8E8E8E" transform="translate(0,0)"/>
<path d="" fill="#8E8E8E" transform="translate(0,0)"/>
<path d="" fill="#8E8E8E" transform="translate(0,0)"/>
<path d="" fill="#8E8E8E" transform="translate(0,0)"/>
<path d="" fill="#8E8E8E" transform="translate(0,0)"/>
<path d="" fill="#8E8E8E" transform="translate(0,0)"/>
<path d="" fill="#8E8E8E" transform="translate(0,0)"/>
<path d="" fill="#8E8E8E" transform="translate(0,0)"/>
<path d="" fill="#8E8E8E" transform="translate(0,0)"/>
<path d="" fill="#8E0000" transform="translate(0,0)"/>
<path d="" fill="#8E8E8E" transform="translate(0,0)"/>
<path d="" fill="#8E8E8E" transform="translate(0,0)"/>
<path d="" fill="#8E0000" transform="translate(0,0)"/>
<path d="" fill="#8E8E8E" transform="translate(0,0)"/>
<path d="" fill="#8E0000" transform="translate(0,0)"/>
<path d="" fill="#8E0000" transform="translate(0,0)"/>
<path d="" fill="#8E8E8E" transform="translate(0,0)"/>
<path d="" fill="#8E8E8E" transform="translate(0,0)"/>
<path d="" fill="#8E8E8E" transform="translate(0,0)"/>
<path d="" fill="#8E0000" transform="translate(0,0)"/>
<path d="" fill="#8E8E8E" transform="translate(0,0)"/>
<path d="" fill="#8E0000" transform="translate(0,0)"/>
<path d="" fill="#8E8E8E" transform="translate(0,0)"/>
<path d="" fill="#8E0000" transform="translate(0,0)"/>
<path d="" fill="#8E0000" transform="translate(0,0)"/>
<path d="" fill="#8E8E8E" transform="translate(0,0)"/>
<path d="" fill="#8E0000" transform="translate(0,0)"/>
<path d="" fill="#8E8E8E" transform="translate(0,0)"/>
<path d="" fill="#8E8E8E" transform="translate(0,0)"/>
<path d="" fill="#8E8E8E" transform="translate(0,0)"/>
<path d="" fill="#8E8E8E" transform="translate(0,0)"/>
<path d="" fill="#8E8E8E" transform="translate(0,0)"/>
<path d="" fill="#8E8E8E" transform="translate(0,0)"/>
<path d="" fill="#8E8E8E" transform="translate(0,0)"/>
<path d="" fill="#8E0000" transform="translate(0,0)"/>
<path d="" fill="#990000" transform="translate(0,0)"/>
<path d="" fill="#8E0000" transform="translate(0,0)"/>
<path d="" fill="#8E8E8E" transform="translate(0,0)"/>
<path d="" fill="#8E8E8E" transform="translate(0,0)"/>
<path d="" fill="#8E8E8E" transform="translate(0,0)"/>
<path d="" fill="#8E8E8E" transform="translate(0,0)"/>
<path d="" fill="#8E0000" transform="translate(0,0)"/>
<path d="" fill="#8E8E8E" transform="translate(0,0)"/>
<path d="" fill="#8E8E8E" transform="translate(0,0)"/>
<path d="" fill="#8E0000" transform="translate(0,0)"/>
<path d="" fill="#8E8E8E" transform="translate(0,0)"/>
<path d="" fill="#8E0000" transform="translate(0,0)"/>
<path d="" fill="#8E8E8E" transform="translate(0,0)"/>
<path d="" fill="#8E0000" transform="translate(0,0)"/>
<path d="" fill="#8E8E8E" transform="translate(0,0)"/>
<path d="" fill="#8E0000" transform="translate(0,0)"/>
<path d="" fill="#8E8E8E" transform="translate(0,0)"/>
<path d="" fill="#8E8E8E" transform="translate(0,0)"/>
<path d="" fill="#8E0000" transform="translate(0,0)"/>
<path d="" fill="#8E8E8E" transform="translate(0,0)"/>
<path d="" fill="#8E8E8E" transform="translate(0,0)"/>
</svg>
